<?xml version="1.0" encoding="UTF-8" standalone="no"?>
<svg
    xmlns="http://www.w3.org/2000/svg"
    width="41.804169mm"
    height="46.566635mm"
    viewBox="0 0 41.804169 46.566635">
    <defs>
        <linearGradient
            id="a"
            x1="84.329002"
            x2="99.252998"
            y1="-826.34998"
            y2="-852.20001"
            gradientTransform="matrix(0.26458333,0,0,-0.26458333,84.93125,-65.97195)"
            gradientUnits="userSpaceOnUse">
            <stop
                stop-color="#991700"
                stop-opacity="0"
                offset="0"/>
            <stop
                stop-color="#991700"
                stop-opacity=".1"
                offset="1"/>
        </linearGradient>
    </defs>
    <g
        transform="translate(-84.93125,-125.55004)">
        <path
            style="fill:#f4481e;stroke-width:0.26458332"
            d="M 124.83042,146.22653 89.535,126.17111 c -1.508125,-0.84666 -2.8575,-0.76729 -3.677708,0.0265 -0.582084,0.55563 -0.899584,1.45521 -0.899584,2.61938 v 40.03145 c 0,1.16417 0.343959,2.06375 0.899584,2.61938 0.846666,0.82021 2.169583,0.89958 3.677708,0.0265 l 35.29542,-20.05542 c 2.54,-1.42875 2.54,-3.75708 0,-5.21229 z"/>
        <path
            style="opacity:0.1;fill:#ffffff;stroke-width:0.26458332;enable-background:new"
            d="M 124.83042,146.49111 89.535,126.4357 c -2.54,-1.42875 -4.60375,-0.23813 -4.60375,2.64583 v -0.26458 c 0,-2.91042 2.06375,-4.10105 4.60375,-2.64584 l 35.29542,20.05542 c 1.32291,0.74083 1.95791,1.74625 1.87854,2.75167 -0.0529,-0.89959 -0.66146,-1.79917 -1.87854,-2.48709 z"/>
        <path
            style="fill:#ffd119;stroke-width:0.26458332"
            d="m 121.33792,153.44965 c 0.42333,-1.4552 0.635,-3.01625 0.635,-4.60375 0,-9.33979 -7.59355,-16.93333 -16.93334,-16.93333 -9.339788,0 -16.93333,7.59354 -16.93333,16.93333 0,7.83167 5.318125,14.4198 12.54125,16.35125 z"/>
        <circle
            style="fill:#ff8c00;stroke-width:0.26458332"
            cx="105.03958"
            cy="148.8459"
            r="10.583333"/>
        <path
            style="fill:url(#a);stroke-width:0.26458332"
            d="m 105.03958,131.91257 c -9.339788,0 -16.93333,7.59354 -16.93333,16.93333 0,7.83167 5.318125,14.4198 12.54125,16.35125 l 20.69042,-11.7475 c 0.42333,-1.4552 0.635,-3.01625 0.635,-4.60375 0,-9.33979 -7.59355,-16.93333 -16.93334,-16.93333 z"/>
        <path
            style="opacity:0.3;fill:#ffffff;stroke-width:0.26458332;enable-background:new"
            d="m 105.03958,132.17715 c 9.31334,0 16.88042,7.51417 16.93334,16.8275 v -0.15875 c 0,-9.33979 -7.59355,-16.93333 -16.93334,-16.93333 -9.339788,0 -16.93333,7.59354 -16.93333,16.93333 v 0.1323 c 0.07937,-9.28688 7.62,-16.80105 16.93333,-16.80105 z"/>
    </g>
    <g
        transform="matrix(0.51563195,0,0,0.41077944,5.5993181,9.948921)">
        <polygon
            fill="#ffffff"
            points="19,35 19,32.5 4,32.5 4,35 "
            transform="translate(12,12)"/>
        <polygon
            fill="#ffffff"
            points="24,30.825 21.756,30.825 21.756,20.072 24,20.072 24,17 16,17 16,20.072 18.244,20.072 18.244,30.825 16,30.825 16,34 24,34 "/>
        <path
            fill="#ffffff"
            d="m 26.0898,31.7417 2.415,-2.688 c 0.995,1.095 1.966,1.742 3.186,1.742 1.443,0 2.605,-0.871 2.605,-2.887 v -10.909 h 3.704 v 11.084 c 0,2.065 -0.615,3.608 -1.661,4.654 -1.07,1.069 -2.647,1.617 -4.539,1.617 -2.714,0 -4.516,-1.195 -5.71,-2.613"/>
    </g>
</svg>
